<?xml version="1.0" encoding="UTF-8" standalone="no"?>
<svg
   version="1.1"
   id="ntnulogo"
   width="309.60774721758mm"
   height="37.632969mm"
   viewBox="0 0 877.62641169052 106.67590795627"
   sodipodi:docname="phpHCg85V"
   xmlns:inkscape="http://www.inkscape.org/namespaces/inkscape"
   xmlns:sodipodi="http://sodipodi.sourceforge.net/DTD/sodipodi-0.dtd"
   xmlns="http://www.w3.org/2000/svg"
   xmlns:svg="http://www.w3.org/2000/svg">
  <sodipodi:namedview
     id="namedview14"
     pagecolor="#ffffff"
     bordercolor="#666666"
     borderopacity="1.0"
     inkscape:pageshadow="2"
     inkscape:pageopacity="0.0"
     inkscape:pagecheckerboard="0"
     inkscape:document-units="mm" />
  <defs
     id="defs" />
  <g
     transform="matrix(2,0,0,2,0,1.1437865)"
     id="g">
    <path
       d="M 33.081001,17.082001 H 11.024 v 22.062 h 22.057001 z m 0,33.084999 H 11.024 C 4.935,50.167 0,45.23 0,39.144001 v -22.062 C 0,10.998 4.935,6.062 11.024,6.062 h 22.057001 c 6.087998,0 11.022,4.936 11.022,11.020001 v 22.062 c 0,6.085999 -4.934002,11.022999 -11.022,11.022999 z"
       stroke="none"
       stroke-width="1"
       stroke-linecap="butt"
       stroke-linejoin="miter"
       stroke-miterlimit="4"
       stroke-opacity="1"
       transform="matrix(1,0,0,-1,0,53.570301)"
       fill="#00509e"
       fill-rule="nonzero"
       fill-opacity="1"
       id="logo-firkant" />
    <path
       d="m 0,0 c -4.997,0 -9.046,-4.054 -9.046,-9.049 0,-4.998 4.049,-9.045999 9.046,-9.045999 4.996,0 9.046,4.047999 9.046,9.045999 C 9.046,-4.054 4.996,0 0,0 Z"
       stroke="none"
       stroke-width="1"
       stroke-linecap="butt"
       stroke-linejoin="miter"
       stroke-miterlimit="4"
       stroke-opacity="1"
       transform="matrix(1,0,0,-1,21.978201,16.333)"
       fill="#00509e"
       fill-rule="nonzero"
       fill-opacity="1"
       id="logo-runding" />
    <path
       d="M 0,0 21.479,-31.225 V -7.2 l -0.062,5.714 H 14.962 V 0 H 28.805 V -1.486 H 23.466 L 23.404,-7.2 V -44.386002 L 22.411,-44.696999 -6.394,-2.792 v -33.649002 l 0.061,-5.896 H 0.308 V -43.827 h -14.337 v 1.489998 h 5.71 l 0.061,5.896 V -7.2 l -0.061,5.714 h -5.71 V 0 Z"
       stroke="none"
       stroke-width="1"
       stroke-linecap="butt"
       stroke-linejoin="miter"
       stroke-miterlimit="4"
       stroke-opacity="1"
       transform="matrix(1,0,0,-1,74.955803,3.4502)"
       fill="#000000"
       fill-rule="nonzero"
       fill-opacity="1"
       id="n1" />
    <path
       d="m 0,0 v -14.027 h -1.863 c -0.187,2.172 -0.436,4.901 -2.36,8.131 -2.234,3.786 -5.277,3.974 -8.256,4.098 h -3.478 l -0.06,-5.588 v -28.616998 l 0.06,-6.334004 H -9.25 V -43.827 h -20.361 v 1.489998 h 6.702 l 0.064,6.334004 V -7.386 l -0.064,5.588 h -2.855999 c -3.600001,-0.062 -6.330002,-0.062 -8.938,-4.221 -2.048,-3.292 -2.235001,-5.899 -2.360001,-8.008 h -1.799 V 0 Z"
       stroke="none"
       stroke-width="1"
       stroke-linecap="butt"
       stroke-linejoin="miter"
       stroke-miterlimit="4"
       stroke-opacity="1"
       transform="matrix(1,0,0,-1,146.5964,3.4502)"
       fill="#000000"
       fill-rule="nonzero"
       fill-opacity="1"
       id="t" />
    <path
       d="M 0,0 21.479,-31.225 V -7.2 l -0.061,5.714 H 14.961 V 0 H 28.804001 V -1.486 H 23.465 L 23.402,-7.2 V -44.386002 L 22.409,-44.696999 -6.396,-2.792 v -33.649002 l 0.063,-5.896 H 0.312 V -43.827 h -14.343 v 1.489998 h 5.714 l 0.058,5.896 V -7.2 l -0.058,5.714 h -5.714 V 0 Z"
       stroke="none"
       stroke-width="1"
       stroke-linecap="butt"
       stroke-linejoin="miter"
       stroke-miterlimit="4"
       stroke-opacity="1"
       transform="matrix(1,0,0,-1,164.2263,3.4502)"
       fill="#000000"
       fill-rule="nonzero"
       fill-opacity="1"
       id="n2" />
    <path
       d="m 0,0 v -1.486 h -6.148 l -0.059,-5.28 V -30.48 c 0.059,-6.145999 0.186,-11.979999 11.732,-11.979999 11.67,0 12.415001,5.09 12.6,10.615 V -6.766 l -0.06,5.28 H 11.797 V 0 H 25.511999 V -1.486 H 20.115 l -0.062,-5.28 v -22.598 c -0.065,-8.131998 -0.126,-15.082999 -16.204,-15.082999 -2.294,0 -7.761,0.246998 -11.235,1.675999 -5.525,2.359001 -5.649,7.200001 -5.712,13.160999 V -6.766 l -0.063,5.28 H -18.5 V 0 Z"
       stroke="none"
       stroke-width="1"
       stroke-linecap="butt"
       stroke-linejoin="miter"
       stroke-miterlimit="4"
       stroke-opacity="1"
       transform="matrix(1,0,0,-1,217.13451,3.4502)"
       fill="#000000"
       fill-rule="nonzero"
       fill-opacity="1"
       id="u" />
    <path
       d="m 0,0 c -0.276,0 -0.5,0.224 -0.5,0.5 v 42.859 c 0,0.277001 0.224,0.5 0.5,0.5 0.276,0 0.5,-0.222999 0.5,-0.5 V 0.5 C 0.5,0.224 0.276,0 0,0 Z"
       stroke="none"
       stroke-width="1"
       stroke-linecap="butt"
       stroke-linejoin="miter"
       stroke-miterlimit="4"
       stroke-opacity="1"
       transform="matrix(1,0,0,-1,269.759,47.291)"
       fill="#000000"
       fill-rule="nonzero"
       fill-opacity="1"
       id="strek" />
    <g
       aria-label="HUNT Cloud"
       id="tekst1"
       style="font-size:24.0018px;line-height:125%;font-family:'Open Sans';text-align:left;letter-spacing:0px;word-spacing:0px;display:inline;stroke-width:0.375001px">
      <path
         d="m 313.36443,32.5 h -1.99233 v -8.063105 h -9.02412 V 32.5 h -1.99233 V 15.365902 h 1.99233 v 7.289609 h 9.02412 v -7.289609 h 1.99233 z"
         id="path16" />
      <path
         d="m 331.00247,15.365902 v 11.086769 q 0,2.929908 -1.76966,4.605815 -1.76966,1.675907 -4.86365,1.675907 -3.09398,0 -4.79332,-1.687627 -1.68763,-1.687627 -1.68763,-4.640973 V 15.365902 h 1.99234 v 11.180526 q 0,2.144693 1.17196,3.293216 1.17196,1.148524 3.44557,1.148524 2.16813,0 3.34009,-1.148524 1.17197,-1.160243 1.17197,-3.316655 V 15.365902 Z"
         id="path18" />
      <path
         d="m 348.92179,32.5 h -2.27361 L 337.2842,18.120015 h -0.0938 q 0.18751,2.53144 0.18751,4.640973 V 32.5 h -1.83998 V 15.365902 h 2.25017 l 9.34055,14.321387 h 0.0937 q -0.0234,-0.31643 -0.10547,-2.027496 -0.082,-1.722785 -0.0586,-2.461122 v -9.832769 h 1.86342 z"
         id="path20" />
      <path
         d="m 358.90691,32.5 h -1.99233 V 17.135566 h -5.42619 v -1.769664 h 12.84471 v 1.769664 h -5.42619 z"
         id="path22" />
      <path
         d="m 380.48275,16.901174 q -2.82443,0 -4.46518,1.88686 -1.62902,1.875141 -1.62902,5.144917 0,3.363534 1.57043,5.203515 1.58215,1.828263 4.50033,1.828263 1.79311,0 4.09015,-0.64458 v 1.746225 q -1.78138,0.668019 -4.39486,0.668019 -3.78544,0 -5.84809,-2.297048 -2.05094,-2.297047 -2.05094,-6.527833 0,-2.648636 0.98445,-4.640973 0.99617,-1.992337 2.85959,-3.070543 1.87514,-1.078206 4.40658,-1.078206 2.69552,0 4.71129,0.984449 l -0.84381,1.711066 q -1.94546,-0.914131 -3.89092,-0.914131 z"
         id="path24" />
      <path
         d="m 389.94049,32.5 h -1.94546 V 14.264257 h 1.94546 z"
         id="path26" />
      <path
         d="m 405.15257,26.065924 q 0,3.14086 -1.58215,4.910524 -1.58215,1.757945 -4.37142,1.757945 -1.72279,0 -3.05883,-0.808655 -1.33604,-0.808654 -2.06265,-2.320486 -0.72662,-1.511833 -0.72662,-3.539328 0,-3.140861 1.57043,-4.887086 1.57043,-1.757944 4.3597,-1.757944 2.69552,0 4.27767,1.793103 1.59387,1.793103 1.59387,4.851927 z m -9.78589,0 q 0,2.461122 0.98445,3.750281 0.98444,1.289159 2.89474,1.289159 1.9103,0 2.89475,-1.277439 0.99617,-1.28916 0.99617,-3.762001 0,-2.449403 -0.99617,-3.715123 -0.98445,-1.277439 -2.91819,-1.277439 -1.91029,0 -2.88302,1.254 -0.97273,1.254 -0.97273,3.738562 z"
         id="path28" />
      <path
         d="m 410.39124,19.655286 v 8.332657 q 0,1.57043 0.7149,2.343926 0.7149,0.773495 2.23845,0.773495 2.01578,0 2.94163,-1.101645 0.93757,-1.101645 0.93757,-3.597926 v -6.750507 h 1.94546 V 32.5 h -1.60559 l -0.28127,-1.722785 h -0.10548 q -0.5977,0.949289 -1.66419,1.453234 -1.05476,0.503944 -2.41424,0.503944 -2.34393,0 -3.51589,-1.113365 -1.16024,-1.113365 -1.16024,-3.562767 v -8.402975 z"
         id="path30" />
      <path
         d="m 432.0374,30.777215 h -0.10548 q -1.34775,1.957178 -4.03155,1.957178 -2.51972,0 -3.92607,-1.722786 -1.39464,-1.722785 -1.39464,-4.898805 0,-3.176019 1.40636,-4.933964 1.40635,-1.757944 3.91435,-1.757944 2.61348,0 4.00812,1.89858 h 0.15235 l -0.082,-0.925851 -0.0469,-0.902411 v -5.226955 h 1.94546 V 32.5 h -1.58215 z m -3.89092,0.328149 q 1.99234,0 2.88303,-1.078206 0.90241,-1.089925 0.90241,-3.504169 v -0.410187 q 0,-2.730673 -0.91413,-3.890917 -0.90241,-1.171963 -2.89474,-1.171963 -1.71107,0 -2.6252,1.336038 -0.90241,1.324318 -0.90241,3.750281 0,2.461122 0.90241,3.715123 0.90241,1.254 2.64863,1.254 z"
         id="path32" />
    </g>
  </g>
</svg>
